<?xml version="1.0" encoding="UTF-8"?>
<!DOCTYPE svg PUBLIC "-//W3C//DTD SVG 1.1//EN" "http://www.w3.org/Graphics/SVG/1.1/DTD/svg11.dtd">
<svg xmlns="http://www.w3.org/2000/svg" version="1.1" width="1024px" height="1024px" style="shape-rendering:geometricPrecision; text-rendering:geometricPrecision; image-rendering:optimizeQuality; fill-rule:evenodd; clip-rule:evenodd" xmlns:xlink="http://www.w3.org/1999/xlink">
<g><path style="opacity:1" fill="#fefefe" d="M -0.5,-0.5 C 340.833,-0.5 682.167,-0.5 1023.5,-0.5C 1023.5,340.833 1023.5,682.167 1023.5,1023.5C 682.167,1023.5 340.833,1023.5 -0.5,1023.5C -0.5,682.167 -0.5,340.833 -0.5,-0.5 Z"/></g>
<g><path style="opacity:1" fill="#060132" d="M 330.5,104.5 C 334.392,106.062 337.725,108.395 340.5,111.5C 345.91,117.247 351.91,122.247 358.5,126.5C 362.436,128.766 365.769,131.766 368.5,135.5C 374.452,142.119 380.785,148.452 387.5,154.5C 389.5,156.167 391.5,157.833 393.5,159.5C 393.56,160.043 393.893,160.376 394.5,160.5C 443.06,135.23 494.393,127.396 548.5,137C 574.121,141.43 598.621,149.263 622,160.5C 626.824,157.849 631.324,154.849 635.5,151.5C 679.948,128.972 726.948,115.306 776.5,110.5C 777.167,110.5 777.5,110.833 777.5,111.5C 784.851,115.509 788.685,121.842 789,130.5C 794.752,177.471 790.919,223.637 777.5,269C 777.57,269.765 777.903,270.265 778.5,270.5C 778.672,271.492 778.338,272.158 777.5,272.5C 777.565,272.062 777.399,271.728 777,271.5C 771.864,288.27 764.698,304.103 755.5,319C 761.905,338.649 764.072,358.816 762,379.5C 761.041,395.635 757.541,411.135 751.5,426C 757.409,445.009 755.075,462.843 744.5,479.5C 741.564,484.105 737.898,488.105 733.5,491.5C 732.687,490.347 731.687,490.347 730.5,491.5C 729.417,492.365 729.251,493.365 730,494.5C 735.936,498.04 742.103,501.207 748.5,504C 748.966,505.299 748.966,506.799 748.5,508.5C 748.144,510.19 747.144,511.19 745.5,511.5C 743.172,513.3 740.505,514.467 737.5,515C 737.833,515.333 738.167,515.667 738.5,516C 735.429,518.518 732.429,521.018 729.5,523.5C 726.909,525.281 724.575,527.281 722.5,529.5C 724.828,530.718 727.328,531.718 730,532.5C 730.667,533.833 730.667,535.167 730,536.5C 728.579,538.405 727.412,540.405 726.5,542.5C 724.883,545.784 722.55,548.451 719.5,550.5C 717.441,549.354 716.441,550.187 716.5,553C 718.382,557.354 719.882,561.854 721,566.5C 721.679,574.936 721.346,583.27 720,591.5C 733.401,603.243 742.901,616.909 748.5,632.5C 749.338,632.842 749.672,633.508 749.5,634.5C 750.214,645.192 748.214,655.525 743.5,665.5C 743.5,665.833 743.5,666.167 743.5,666.5C 739.728,669.094 736.061,671.927 732.5,675C 727.984,677.097 723.65,679.263 719.5,681.5C 719.833,682.167 720.167,682.833 720.5,683.5C 725.809,694.117 731.309,705.117 737,716.5C 748.746,744.456 754.579,773.456 754.5,803.5C 754.768,805.099 754.434,806.432 753.5,807.5C 753.649,806.448 753.483,805.448 753,804.5C 750.83,829.551 742.997,852.551 729.5,873.5C 727.262,878.071 724.262,882.071 720.5,885.5C 720.565,885.062 720.399,884.728 720,884.5C 714.605,890.064 709.105,895.397 703.5,900.5C 700.726,901.723 698.059,903.223 695.5,905C 693.413,908.508 691.08,911.842 688.5,915C 682.937,916.538 677.27,917.538 671.5,918C 660.833,918.667 650.167,919.333 639.5,920C 641.473,920.495 643.473,920.662 645.5,920.5C 643.052,921.473 640.385,921.806 637.5,921.5C 586.153,918.867 534.82,919.2 483.5,922.5C 462.503,921.179 441.503,921.179 420.5,922.5C 395.651,921.135 370.651,919.635 345.5,918C 341.724,917.408 338.057,916.408 334.5,915C 332.14,912.64 329.806,910.306 327.5,908C 280.109,911.918 237.775,899.418 200.5,870.5C 191.757,861.426 183.09,852.426 174.5,843.5C 168.673,837.668 164.006,831.002 160.5,823.5C 154.56,813.284 149.393,802.617 145,791.5C 138.988,774.299 133.488,756.966 128.5,739.5C 129,738.5 129.5,737.5 130,736.5C 134.138,734.131 138.638,732.631 143.5,732C 180.161,723.292 217.161,718.792 254.5,718.5C 256.099,718.232 257.432,718.566 258.5,719.5C 280.353,722.197 302.686,729.697 325.5,742C 332.951,746.987 339.951,751.82 346.5,756.5C 346.833,756.5 347.167,756.5 347.5,756.5C 348.329,757.332 349.162,756.999 350,755.5C 353.42,750.263 356.587,744.929 359.5,739.5C 360.139,738.903 360.472,738.07 360.5,737C 356.991,716.192 356.658,695.358 359.5,674.5C 358.272,671.987 356.605,669.987 354.5,668.5C 348.106,656.452 347.106,643.952 351.5,631C 351.43,630.235 351.097,629.735 350.5,629.5C 350.5,629.167 350.5,628.833 350.5,628.5C 351.097,628.265 351.43,627.765 351.5,627C 348.766,619.835 346.766,612.502 345.5,605C 329.894,599.203 315.561,591.369 302.5,581.5C 294.089,573.591 286.589,564.924 280,555.5C 275.467,547.271 271.634,538.771 268.5,530C 251.703,530.992 235.87,535.492 221,543.5C 216.642,541.121 216.475,538.288 220.5,535C 234.864,526.157 250.53,521.49 267.5,521C 268.464,516.934 268.797,512.767 268.5,508.5C 255.314,505.396 241.981,504.729 228.5,506.5C 225.408,506.493 222.408,505.993 219.5,505C 216.598,502.137 216.932,499.804 220.5,498C 229.602,496.919 238.602,496.085 247.5,495.5C 254.534,496.168 261.201,497.835 267.5,500.5C 268.209,501.404 269.209,501.737 270.5,501.5C 271.66,497.531 272.827,493.531 274,489.5C 278.706,481.923 281.873,473.756 283.5,465C 283.472,463.93 283.139,463.097 282.5,462.5C 282.5,458.5 282.5,454.5 282.5,450.5C 283.323,453.977 283.823,457.644 284,461.5C 284.711,454.785 284.378,448.118 283,441.5C 279.103,426.391 274.937,412.058 270.5,398.5C 269.662,398.158 269.328,397.492 269.5,396.5C 270.139,395.903 270.472,395.07 270.5,394C 269.374,386.535 268.541,379.035 268,371.5C 267.292,370.619 266.458,369.953 265.5,369.5C 250.777,345.189 246.944,319.189 254,291.5C 257.294,280.779 261.461,270.445 266.5,260.5C 264.172,248.965 263.006,237.299 263,225.5C 262.503,228.146 262.336,230.813 262.5,233.5C 261.167,224.5 261.167,215.5 262.5,206.5C 262.334,212.509 262.501,218.509 263,224.5C 262.233,184.747 270.566,147.08 288,111.5C 291.789,105.377 296.622,100.21 302.5,96C 305.5,95.3333 308.5,95.3333 311.5,96C 318.122,98.3134 324.455,101.147 330.5,104.5 Z"/></g>
<g><path style="opacity:1" fill="#0f0f1d" d="M 340.5,111.5 C 344.88,113.7 348.88,116.533 352.5,120C 354.706,122.037 356.706,124.203 358.5,126.5C 351.91,122.247 345.91,117.247 340.5,111.5 Z"/></g>
<g><path style="opacity:1" fill="#110f1c" d="M 330.5,104.5 C 324.455,101.147 318.122,98.3134 311.5,96C 308.5,95.3333 305.5,95.3333 302.5,96C 296.622,100.21 291.789,105.377 288,111.5C 270.566,147.08 262.233,184.747 263,224.5C 262.501,218.509 262.334,212.509 262.5,206.5C 263.376,172.612 271.543,140.612 287,110.5C 290.419,105.077 294.585,100.244 299.5,96C 305.933,92.876 312.267,93.2094 318.5,97C 323.07,98.7744 327.07,101.274 330.5,104.5 Z"/></g>
<g><path style="opacity:1" fill="#79492a" d="M 297.5,124.5 C 300.731,126.22 303.564,128.553 306,131.5C 319.544,150.931 329.044,172.264 334.5,195.5C 330.708,198.79 327.042,202.29 323.5,206C 305.618,215.875 290.118,228.708 277,244.5C 277.374,203.378 284.207,163.378 297.5,124.5 Z"/></g>
<g><path style="opacity:1" fill="#0e0c1a" d="M 776.5,110.5 C 726.948,115.306 679.948,128.972 635.5,151.5C 665.7,134.262 698.033,122.429 732.5,116C 747.056,113.185 761.722,111.351 776.5,110.5 Z"/></g>
<g><path style="opacity:1" fill="#272635" d="M 368.5,135.5 C 375.854,140.854 382.188,147.188 387.5,154.5C 380.785,148.452 374.452,142.119 368.5,135.5 Z"/></g>
<g><path style="opacity:1" fill="#0e0d1b" d="M 635.5,151.5 C 631.324,154.849 626.824,157.849 622,160.5C 598.621,149.263 574.121,141.43 548.5,137C 494.393,127.396 443.06,135.23 394.5,160.5C 393.893,160.376 393.56,160.043 393.5,159.5C 435.993,136.639 481.326,127.805 529.5,133C 561.706,136.593 592.54,145.093 622,158.5C 626.4,155.924 630.9,153.591 635.5,151.5 Z"/></g>
<g><path style="opacity:1" fill="#d1cbc2" d="M 514.5,147.5 C 531.857,147.961 548.857,150.628 565.5,155.5C 564.205,156.488 562.872,157.488 561.5,158.5C 542.739,154.324 523.739,152.324 504.5,152.5C 507.658,150.449 510.992,148.783 514.5,147.5 Z"/></g>
<g><path style="opacity:1" fill="#838699" d="M 504.5,152.5 C 523.739,152.324 542.739,154.324 561.5,158.5C 547.198,170.636 534.031,183.969 522,198.5C 521.517,199.448 521.351,200.448 521.5,201.5C 500.786,196.214 479.786,192.548 458.5,190.5C 463.96,183.206 470.293,176.706 477.5,171C 482.454,167.715 487.12,164.048 491.5,160C 495.562,156.971 499.895,154.471 504.5,152.5 Z"/></g>
<g><path style="opacity:1" fill="#feecd6" d="M 772.5,139.5 C 773.4,157.482 773.734,175.482 773.5,193.5C 771.972,205.396 770.306,217.396 768.5,229.5C 765.73,246.579 761.397,263.246 755.5,279.5C 754.833,279.5 754.5,279.833 754.5,280.5C 750.11,290.948 745.443,301.281 740.5,311.5C 733.421,322.632 725.587,333.299 717,343.5C 713.911,339.646 711.078,335.646 708.5,331.5C 708.923,330.735 709.257,329.902 709.5,329C 706.643,319.027 705.81,308.86 707,298.5C 708.226,287.263 710.559,276.263 714,265.5C 729.085,221.717 747.918,179.717 770.5,139.5C 771.167,138.167 771.833,138.167 772.5,139.5 Z"/></g>
<g><path style="opacity:1" fill="#110e20" d="M 453.5,152.5 C 427.644,158.553 403.977,169.219 382.5,184.5C 383.568,182.26 385.234,180.426 387.5,179C 405.381,167.711 425.381,158.711 447.5,152C 449.712,151.211 451.712,151.378 453.5,152.5 Z"/></g>
<g><path style="opacity:1" fill="#12111c" d="M 777.5,111.5 C 783.816,112.985 787.649,116.985 789,123.5C 796.382,173.249 792.882,222.249 778.5,270.5C 777.903,270.265 777.57,269.765 777.5,269C 790.919,223.637 794.752,177.471 789,130.5C 788.685,121.842 784.851,115.509 777.5,111.5 Z"/></g>
<g><path style="opacity:1" fill="#cdc7bf" d="M 479.5,148.5 C 474.236,153.084 467.569,155.751 459.5,156.5C 433.226,161.641 409.893,172.641 389.5,189.5C 384.546,189.565 379.713,190.232 375,191.5C 374.312,190.668 374.479,190.002 375.5,189.5C 378.039,188.069 380.372,186.403 382.5,184.5C 403.977,169.219 427.644,158.553 453.5,152.5C 462.02,150.263 470.686,148.93 479.5,148.5 Z"/></g>
<g><path style="opacity:1" fill="#fddaae" d="M 770.5,139.5 C 747.918,179.717 729.085,221.717 714,265.5C 710.559,276.263 708.226,287.263 707,298.5C 705.81,308.86 706.643,319.027 709.5,329C 709.257,329.902 708.923,330.735 708.5,331.5C 701.425,322.387 694.092,313.387 686.5,304.5C 692.056,299.437 696.722,293.604 700.5,287C 694.228,288.053 687.894,288.719 681.5,289C 694.664,276.813 704.998,262.646 712.5,246.5C 715.575,242.324 717.908,237.657 719.5,232.5C 719.167,232.167 718.833,231.833 718.5,231.5C 699.046,241.31 679.546,250.977 660,260.5C 660.003,256.804 660.503,253.137 661.5,249.5C 675.651,213.056 698.984,183.889 731.5,162C 743.874,153.478 756.874,145.978 770.5,139.5 Z"/></g>
<g><path style="opacity:1" fill="#83879a" d="M 459.5,156.5 C 461.704,157.445 464.038,157.611 466.5,157C 455.611,166.055 445.944,176.221 437.5,187.5C 435.604,188.466 433.604,188.799 431.5,188.5C 417.485,188.375 403.485,188.709 389.5,189.5C 409.893,172.641 433.226,161.641 459.5,156.5 Z"/></g>
<g><path style="opacity:1" fill="#03011b" d="M 772.5,139.5 C 773.117,139.611 773.617,139.944 774,140.5C 774.291,151.179 774.791,161.845 775.5,172.5C 775.101,181.544 774.435,188.544 773.5,193.5C 773.734,175.482 773.4,157.482 772.5,139.5 Z"/></g>
<g><path style="opacity:1" fill="#61637a" d="M 514.5,147.5 C 510.992,148.783 507.658,150.449 504.5,152.5C 499.895,154.471 495.562,156.971 491.5,160C 487.12,164.048 482.454,167.715 477.5,171C 470.293,176.706 463.96,183.206 458.5,190.5C 449.334,190.062 440.334,189.395 431.5,188.5C 433.604,188.799 435.604,188.466 437.5,187.5C 445.944,176.221 455.611,166.055 466.5,157C 464.038,157.611 461.704,157.445 459.5,156.5C 467.569,155.751 474.236,153.084 479.5,148.5C 491.005,146.494 502.672,146.161 514.5,147.5 Z"/></g>
<g><path style="opacity:1" fill="#606279" d="M 565.5,155.5 C 572.46,157.233 579.127,159.566 585.5,162.5C 568.833,175.833 553.833,190.833 540.5,207.5C 533.949,205.87 527.616,203.87 521.5,201.5C 521.351,200.448 521.517,199.448 522,198.5C 534.031,183.969 547.198,170.636 561.5,158.5C 562.872,157.488 564.205,156.488 565.5,155.5 Z"/></g>
<g><path style="opacity:1" fill="#85889b" d="M 585.5,162.5 C 592.512,164.726 599.179,167.726 605.5,171.5C 591.047,185.946 577.714,201.28 565.5,217.5C 557.067,214.14 548.734,210.806 540.5,207.5C 553.833,190.833 568.833,175.833 585.5,162.5 Z"/></g>
<g><path style="opacity:1" fill="#8a5333" d="M 651.5,228.5 C 651.414,227.504 651.748,226.671 652.5,226C 634.773,221.105 623.107,209.939 617.5,192.5C 616.378,193.63 615.044,194.297 613.5,194.5C 629.643,180.914 647.643,170.08 667.5,162C 691.463,152.567 715.796,144.567 740.5,138C 701.513,159.153 671.846,189.319 651.5,228.5 Z"/></g>
<g><path style="opacity:1" fill="#754628" d="M 651.5,228.5 C 647.104,239.857 643.604,251.524 641,263.5C 623.042,249.393 603.876,237.059 583.5,226.5C 582.417,225.635 582.251,224.635 583,223.5C 592.096,212.567 602.262,202.901 613.5,194.5C 615.044,194.297 616.378,193.63 617.5,192.5C 623.107,209.939 634.773,221.105 652.5,226C 651.748,226.671 651.414,227.504 651.5,228.5 Z"/></g>
<g><path style="opacity:1" fill="#242132" d="M 453.5,207.5 C 439.859,206.593 426.192,206.26 412.5,206.5C 411.048,205.698 409.382,205.198 407.5,205C 419.833,204.333 432.167,204.333 444.5,205C 447.992,204.93 450.992,205.763 453.5,207.5 Z"/></g>
<g><path style="opacity:1" fill="#bcb8b3" d="M 405.5,206.5 C 407.833,206.5 410.167,206.5 412.5,206.5C 426.192,206.26 439.859,206.593 453.5,207.5C 454.167,207.5 454.833,207.5 455.5,207.5C 462.916,207.94 470.249,208.94 477.5,210.5C 475.167,214.5 472.833,218.5 470.5,222.5C 463.296,220.8 455.963,219.633 448.5,219C 432.346,218.08 416.346,217.247 400.5,216.5C 402.18,213.14 403.847,209.807 405.5,206.5 Z"/></g>
<g><path style="opacity:1" fill="#c7c2bb" d="M 384.5,207.5 C 382.316,211.881 379.65,215.881 376.5,219.5C 359.865,223.375 344.198,228.708 329.5,235.5C 330.205,229.59 332.872,224.757 337.5,221C 352.096,212.746 367.762,208.246 384.5,207.5 Z"/></g>
<g><path style="opacity:1" fill="#bab6b2" d="M 496.5,214.5 C 519.823,219.607 542.157,227.273 563.5,237.5C 561.595,240.304 559.929,243.304 558.5,246.5C 536.789,237.821 514.456,231.155 491.5,226.5C 493.167,222.5 494.833,218.5 496.5,214.5 Z"/></g>
<g><path style="opacity:1" fill="#0f0e23" d="M 455.5,207.5 C 466.842,206.663 478.175,207.83 489.5,211C 528.268,219.472 564.601,233.805 598.5,254C 605.411,258.61 612.078,263.443 618.5,268.5C 606.662,260.411 594.329,253.078 581.5,246.5C 576.097,242.465 570.097,239.465 563.5,237.5C 542.157,227.273 519.823,219.607 496.5,214.5C 490.262,212.848 483.929,211.515 477.5,210.5C 470.249,208.94 462.916,207.94 455.5,207.5 Z"/></g>
<g><path style="opacity:1" fill="#838699" d="M 400.5,216.5 C 416.346,217.247 432.346,218.08 448.5,219C 455.963,219.633 463.296,220.8 470.5,222.5C 463.289,236.63 457.956,251.464 454.5,267C 454.164,268.03 453.497,268.53 452.5,268.5C 441.223,266.699 429.89,265.365 418.5,264.5C 407.833,264.5 397.167,264.5 386.5,264.5C 388.702,247.675 393.369,231.675 400.5,216.5 Z"/></g>
<g><path style="opacity:1" fill="#61637a" d="M 405.5,206.5 C 403.847,209.807 402.18,213.14 400.5,216.5C 393.369,231.675 388.702,247.675 386.5,264.5C 379.796,265.237 373.129,266.237 366.5,267.5C 365.925,265.924 365.592,264.258 365.5,262.5C 367.747,247.767 371.414,233.433 376.5,219.5C 379.65,215.881 382.316,211.881 384.5,207.5C 391.313,206.509 398.313,206.175 405.5,206.5 Z"/></g>
<g><path style="opacity:1" fill="#61637a" d="M 477.5,210.5 C 483.929,211.515 490.262,212.848 496.5,214.5C 494.833,218.5 493.167,222.5 491.5,226.5C 484.707,241.772 478.707,257.439 473.5,273.5C 472.5,273.5 471.5,273.5 470.5,273.5C 464.564,271.58 458.564,269.913 452.5,268.5C 453.497,268.53 454.164,268.03 454.5,267C 457.956,251.464 463.289,236.63 470.5,222.5C 472.833,218.5 475.167,214.5 477.5,210.5 Z"/></g>
<g><path style="opacity:1" fill="#84879a" d="M 376.5,219.5 C 371.414,233.433 367.747,247.767 365.5,262.5C 365.592,264.258 365.925,265.924 366.5,267.5C 363.461,268.01 360.461,268.677 357.5,269.5C 344.556,272.592 332.223,277.258 320.5,283.5C 320.165,266.845 323.165,250.845 329.5,235.5C 344.198,228.708 359.865,223.375 376.5,219.5 Z"/></g>
<g><path style="opacity:1" fill="#61637a" d="M 563.5,237.5 C 570.097,239.465 576.097,242.465 581.5,246.5C 580.626,250.033 579.293,253.366 577.5,256.5C 569.455,272.959 561.788,289.626 554.5,306.5C 548.667,303.751 543.001,300.751 537.5,297.5C 543.126,279.96 550.126,262.96 558.5,246.5C 559.929,243.304 561.595,240.304 563.5,237.5 Z"/></g>
<g><path style="opacity:1" fill="#838699" d="M 491.5,226.5 C 514.456,231.155 536.789,237.821 558.5,246.5C 550.126,262.96 543.126,279.96 537.5,297.5C 516.837,287.723 495.504,279.723 473.5,273.5C 478.707,257.439 484.707,241.772 491.5,226.5 Z"/></g>
<g><path style="opacity:1" fill="#b8b5b1" d="M 581.5,246.5 C 594.329,253.078 606.662,260.411 618.5,268.5C 625.833,274.5 633.167,280.5 640.5,286.5C 638.94,288.954 637.94,291.62 637.5,294.5C 617.83,281.33 597.83,268.664 577.5,256.5C 579.293,253.366 580.626,250.033 581.5,246.5 Z"/></g>
<g><path style="opacity:1" fill="#130f1b" d="M 768.5,229.5 C 767.326,246.858 762.993,263.524 755.5,279.5C 761.397,263.246 765.73,246.579 768.5,229.5 Z"/></g>
<g><path style="opacity:1" fill="#140f20" d="M 712.5,246.5 C 714.525,242.255 716.025,237.922 717,233.5C 697.892,243.805 678.392,253.138 658.5,261.5C 658.034,257.018 659.034,253.018 661.5,249.5C 660.503,253.137 660.003,256.804 660,260.5C 679.546,250.977 699.046,241.31 718.5,231.5C 718.833,231.833 719.167,232.167 719.5,232.5C 717.908,237.657 715.575,242.324 712.5,246.5 Z"/></g>
<g><path style="opacity:1" fill="#0d0b23" d="M 307.5,255.5 C 308.139,256.097 308.472,256.93 308.5,258C 306.382,270.628 304.382,283.128 302.5,295.5C 303.02,282.007 304.687,268.673 307.5,255.5 Z"/></g>
<g><path style="opacity:1" fill="#080721" d="M 386.5,264.5 C 397.167,264.5 407.833,264.5 418.5,264.5C 398.804,264.783 379.138,266.783 359.5,270.5C 358.584,270.457 357.917,270.124 357.5,269.5C 360.461,268.677 363.461,268.01 366.5,267.5C 373.129,266.237 379.796,265.237 386.5,264.5 Z"/></g>
<g><path style="opacity:1" fill="#838699" d="M 577.5,256.5 C 597.83,268.664 617.83,281.33 637.5,294.5C 628.495,311.857 618.495,328.524 607.5,344.5C 594.317,333.311 580.317,323.311 565.5,314.5C 562.01,311.589 558.344,308.922 554.5,306.5C 561.788,289.626 569.455,272.959 577.5,256.5 Z"/></g>
<g><path style="opacity:1" fill="#0f0d1a" d="M 265.5,369.5 C 254.066,354.358 248.733,337.192 249.5,318C 249.616,297.37 254.949,278.203 265.5,260.5C 265.192,259.692 264.692,259.025 264,258.5C 262.877,250.203 262.377,241.87 262.5,233.5C 262.336,230.813 262.503,228.146 263,225.5C 263.006,237.299 264.172,248.965 266.5,260.5C 261.461,270.445 257.294,280.779 254,291.5C 246.944,319.189 250.777,345.189 265.5,369.5 Z"/></g>
<g><path style="opacity:1" fill="#0b0922" d="M 470.5,273.5 C 471.5,273.5 472.5,273.5 473.5,273.5C 495.504,279.723 516.837,287.723 537.5,297.5C 543.001,300.751 548.667,303.751 554.5,306.5C 558.344,308.922 562.01,311.589 565.5,314.5C 550.022,305.593 534.022,297.426 517.5,290C 501.458,283.608 485.791,278.108 470.5,273.5 Z"/></g>
<g><path style="opacity:1" fill="#606279" d="M 640.5,286.5 C 646.463,290.795 651.796,295.795 656.5,301.5C 654.153,308.528 650.986,315.195 647,321.5C 639.32,334.205 631.153,346.538 622.5,358.5C 617.474,353.805 612.474,349.139 607.5,344.5C 618.495,328.524 628.495,311.857 637.5,294.5C 637.94,291.62 638.94,288.954 640.5,286.5 Z"/></g>
<g><path style="opacity:1" fill="#0e0b19" d="M 754.5,280.5 C 755.097,280.735 755.43,281.235 755.5,282C 751.387,292.393 746.387,302.227 740.5,311.5C 745.443,301.281 750.11,290.948 754.5,280.5 Z"/></g>
<g><path style="opacity:1" fill="#83869a" d="M 308.5,250.5 C 307.962,252.117 307.629,253.784 307.5,255.5C 304.687,268.673 303.02,282.007 302.5,295.5C 291.064,302.935 282.064,312.601 275.5,324.5C 273.165,311.408 274.665,298.741 280,286.5C 285.313,274.699 292.479,264.199 301.5,255C 303.734,253.25 306.068,251.75 308.5,250.5 Z"/></g>
<g><path style="opacity:1" fill="#fca143" d="M 484.5,299.5 C 502.971,305.951 521.304,314.284 539.5,324.5C 540.107,324.376 540.44,324.043 540.5,323.5C 548.053,327.436 555.053,332.102 561.5,337.5C 559.322,336.071 556.989,335.237 554.5,335C 578.066,356.881 598.233,381.381 615,408.5C 626.85,429.552 634.35,451.886 637.5,475.5C 604.278,466.504 570.945,466.171 537.5,474.5C 546.147,450.618 541.147,430.118 522.5,413C 500.159,400.329 480.659,403.829 464,423.5C 447.534,446.877 447.367,470.21 463.5,493.5C 431.888,504.824 399.222,511.824 365.5,514.5C 364.78,506.268 360.447,500.768 352.5,498C 342.711,495.188 332.711,493.855 322.5,494C 338.665,472.836 343.165,449.336 336,423.5C 333.873,414.724 329.373,407.557 322.5,402C 311.672,400.504 304.506,405.004 301,415.5C 298.925,422.377 297.425,429.377 296.5,436.5C 291.17,417.344 287.836,397.844 286.5,378C 287.63,335.23 308.296,306.897 348.5,293C 353.732,291.285 359.065,290.618 364.5,291C 355.971,313.663 358.804,334.83 373,354.5C 376.367,358.203 380.034,361.536 384,364.5C 387.997,339.168 399.33,317.835 418,300.5C 419.875,314.08 425.375,325.913 434.5,336C 437.005,337.753 439.671,339.253 442.5,340.5C 442.777,319.933 451.777,304.6 469.5,294.5C 474.662,296.032 479.662,297.698 484.5,299.5 Z"/></g>
<g><path style="opacity:1" fill="#ccc7bf" d="M 308.5,250.5 C 306.068,251.75 303.734,253.25 301.5,255C 292.479,264.199 285.313,274.699 280,286.5C 274.665,298.741 273.165,311.408 275.5,324.5C 273.07,329.699 270.903,335.032 269,340.5C 267.504,335.095 266.337,329.761 265.5,324.5C 265.387,306.512 269.387,289.512 277.5,273.5C 286.087,259.067 297.087,246.567 310.5,236C 311.332,235.312 311.998,235.479 312.5,236.5C 310.552,241.008 309.219,245.675 308.5,250.5 Z"/></g>
<g><path style="opacity:1" fill="#070419" d="M 277.5,273.5 C 269.387,289.512 265.387,306.512 265.5,324.5C 264.782,322.604 264.449,319.938 264.5,316.5C 264.898,306.572 266.731,296.905 270,287.5C 271.965,281.858 274.465,277.191 277.5,273.5 Z"/></g>
<g><path style="opacity:1" fill="#100f1b" d="M 777.5,272.5 C 772.878,288.861 766.212,304.361 757.5,319C 760.201,326.969 762.034,335.136 763,343.5C 766.03,371.759 762.863,399.259 753.5,426C 757.89,440.366 757.39,454.533 752,468.5C 749.971,472.58 747.471,476.246 744.5,479.5C 755.075,462.843 757.409,445.009 751.5,426C 757.541,411.135 761.041,395.635 762,379.5C 764.072,358.816 761.905,338.649 755.5,319C 764.698,304.103 771.864,288.27 777,271.5C 777.399,271.728 777.565,272.062 777.5,272.5 Z"/></g>
<g><path style="opacity:1" fill="#606076" d="M 663.5,308.5 C 680.829,325.152 695.496,343.819 707.5,364.5C 699.418,384.349 688.085,402.015 673.5,417.5C 662.879,403.544 651.879,389.878 640.5,376.5C 647.001,367.815 652.501,358.481 657,348.5C 658.961,343.323 660.294,337.99 661,332.5C 661.512,324.316 662.346,316.316 663.5,308.5 Z"/></g>
<g><path style="opacity:1" fill="#f6ba46" d="M 484.5,299.5 C 504.261,304.975 522.927,312.975 540.5,323.5C 540.44,324.043 540.107,324.376 539.5,324.5C 521.304,314.284 502.971,305.951 484.5,299.5 Z"/></g>
<g><path style="opacity:1" fill="#84879a" d="M 656.5,301.5 C 657.239,301.369 657.906,301.536 658.5,302C 660.054,304.287 661.721,306.454 663.5,308.5C 662.346,316.316 661.512,324.316 661,332.5C 660.294,337.99 658.961,343.323 657,348.5C 652.501,358.481 647.001,367.815 640.5,376.5C 634.167,370.833 628.167,364.833 622.5,358.5C 631.153,346.538 639.32,334.205 647,321.5C 650.986,315.195 654.153,308.528 656.5,301.5 Z"/></g>
<g><path style="opacity:1" fill="#626278" d="M 742.5,340.5 C 743.222,340.918 743.722,341.584 744,342.5C 746.297,359.298 745.63,375.965 742,392.5C 737.304,381.608 732.471,370.774 727.5,360C 732.701,353.635 737.701,347.135 742.5,340.5 Z"/></g>
<g><path style="opacity:1" fill="#070133" d="M 485.5,355.5 C 505.181,355.589 521.681,362.922 535,377.5C 535.833,379.167 536.667,380.833 537.5,382.5C 529.452,382.463 521.452,381.297 513.5,379C 503.842,378.209 494.175,377.542 484.5,377C 476.335,375.838 473.502,371.338 476,363.5C 478.325,359.765 481.491,357.099 485.5,355.5 Z"/></g>
<g><path style="opacity:1" fill="#060132" d="M 315.5,355.5 C 329.334,354.172 334.167,360.172 330,373.5C 328.581,374.46 327.081,375.293 325.5,376C 316.492,376.667 307.492,377.001 298.5,377C 297.828,373.308 298.661,369.808 301,366.5C 304.881,361.436 309.715,357.769 315.5,355.5 Z"/></g>
<g><path style="opacity:1" fill="#464661" d="M 707.5,364.5 C 711.928,371.019 715.594,378.019 718.5,385.5C 711.735,404.701 700.735,421.034 685.5,434.5C 681.532,428.857 677.532,423.19 673.5,417.5C 688.085,402.015 699.418,384.349 707.5,364.5 Z"/></g>
<g><path style="opacity:1" fill="#e0812c" d="M 561.5,337.5 C 571.553,344.039 581.219,351.206 590.5,359C 608.471,375.631 624.971,393.464 640,412.5C 658.911,437.99 677.578,463.656 696,489.5C 700.399,493.409 704.899,497.076 709.5,500.5C 693.372,496.902 677.705,491.902 662.5,485.5C 654.331,481.777 645.998,478.443 637.5,475.5C 634.35,451.886 626.85,429.552 615,408.5C 598.233,381.381 578.066,356.881 554.5,335C 556.989,335.237 559.322,336.071 561.5,337.5 Z"/></g>
<g><path style="opacity:1" fill="#050412" d="M 265.5,369.5 C 266.458,369.953 267.292,370.619 268,371.5C 268.541,379.035 269.374,386.535 270.5,394C 270.472,395.07 270.139,395.903 269.5,396.5C 268.235,388.559 267.402,380.559 267,372.5C 265.961,371.756 265.461,370.756 265.5,369.5 Z"/></g>
<g><path style="opacity:1" fill="#606176" d="M 718.5,385.5 C 726.71,400.951 732.877,417.284 737,434.5C 740.057,445.961 738.39,456.628 732,466.5C 726.927,472.244 721.26,477.244 715,481.5C 705.156,465.805 695.322,450.139 685.5,434.5C 700.735,421.034 711.735,404.701 718.5,385.5 Z"/></g>
<g><path style="opacity:1" fill="#050033" d="M 537.5,474.5 C 533.947,481.718 528.947,487.718 522.5,492.5C 517.165,495.834 511.499,498.667 505.5,501C 497.898,502.523 490.232,502.856 482.5,502C 476.054,499.942 470.054,497.108 464.5,493.5C 464.167,493.5 463.833,493.5 463.5,493.5C 447.367,470.21 447.534,446.877 464,423.5C 480.659,403.829 500.159,400.329 522.5,413C 541.147,430.118 546.147,450.618 537.5,474.5 Z"/></g>
<g><path style="opacity:1" fill="#f9f9fa" d="M 325.5,442.5 C 320.663,447.768 315.829,447.768 311,442.5C 309.002,436.127 309.169,429.794 311.5,423.5C 321.105,414.783 326.772,417.116 328.5,430.5C 328.121,434.683 327.121,438.683 325.5,442.5 Z"/></g>
<g><path style="opacity:1" fill="#0c0a18" d="M 282.5,450.5 C 282.436,446.78 281.936,443.114 281,439.5C 277.026,425.936 273.526,412.269 270.5,398.5C 274.937,412.058 279.103,426.391 283,441.5C 284.378,448.118 284.711,454.785 284,461.5C 283.823,457.644 283.323,453.977 282.5,450.5 Z"/></g>
<g><path style="opacity:1" fill="#100e1d" d="M 311.5,423.5 C 309.169,429.794 309.002,436.127 311,442.5C 315.829,447.768 320.663,447.768 325.5,442.5C 321.006,450.026 315.84,450.359 310,443.5C 307.024,438.029 306.69,432.362 309,426.5C 309.377,425.058 310.21,424.058 311.5,423.5 Z"/></g>
<g><path style="opacity:1" fill="#100e1b" d="M 474.5,430.5 C 477.174,424.332 481.84,422.166 488.5,424C 495.51,427.543 498.344,433.71 497,442.5C 494.152,454.672 486.986,458.505 475.5,454C 470.796,449.117 469.296,443.283 471,436.5C 471.424,433.975 472.59,431.975 474.5,430.5 Z"/></g>
<g><path style="opacity:1" fill="#fbfbfc" d="M 474.5,430.5 C 481.051,422.542 487.551,422.542 494,430.5C 496.157,436.949 495.824,443.282 493,449.5C 486.333,456.167 479.667,456.167 473,449.5C 470.82,442.952 471.32,436.618 474.5,430.5 Z"/></g>
<g><path style="opacity:1" fill="#feecd6" d="M 298.5,467.5 C 298.618,475.863 301.285,483.197 306.5,489.5C 308.091,492.431 310.091,495.098 312.5,497.5C 293.712,516.979 297.212,530.979 323,539.5C 325.963,550.789 331.796,560.289 340.5,568C 342.577,569.705 344.91,570.872 347.5,571.5C 354.769,575.984 362.769,577.984 371.5,577.5C 381.054,577.79 390.054,575.79 398.5,571.5C 404.548,568.225 409.715,563.891 414,558.5C 415.205,555.132 414.205,552.798 411,551.5C 407.193,552.644 404.027,554.644 401.5,557.5C 389.333,564.167 376.333,566.667 362.5,565C 349.093,561.757 340.426,553.59 336.5,540.5C 346.09,537.949 354.256,532.949 361,525.5C 363.066,522.039 364.566,518.373 365.5,514.5C 399.222,511.824 431.888,504.824 463.5,493.5C 463.833,493.5 464.167,493.5 464.5,493.5C 481.16,506.819 498.827,507.985 517.5,497C 519.618,495.951 521.284,494.451 522.5,492.5C 528.947,487.718 533.947,481.718 537.5,474.5C 570.945,466.171 604.278,466.504 637.5,475.5C 645.998,478.443 654.331,481.777 662.5,485.5C 656.72,488.892 650.72,492.059 644.5,495C 651.785,496.492 659.118,497.659 666.5,498.5C 617.113,559.71 553.446,597.044 475.5,610.5C 474.167,610.5 472.833,610.5 471.5,610.5C 437.018,610.527 403.018,606.027 369.5,597C 370.956,596.577 371.456,595.744 371,594.5C 367.179,595.675 363.346,595.508 359.5,594C 351.212,590.907 343.212,587.24 335.5,583C 334.207,582.51 332.873,582.343 331.5,582.5C 308.497,571.164 292.497,553.497 283.5,529.5C 283.833,528.833 284.167,528.167 284.5,527.5C 285.768,528.428 287.101,528.595 288.5,528C 286.649,527.163 284.816,526.329 283,525.5C 282.172,521.129 282.339,516.795 283.5,512.5C 286.079,513.706 288.579,515.039 291,516.5C 291.167,516.167 291.333,515.833 291.5,515.5C 289.285,512.068 286.618,509.068 283.5,506.5C 287.783,494.933 291.783,483.267 295.5,471.5C 296.163,469.958 296.83,468.291 297.5,466.5C 298.107,466.624 298.44,466.957 298.5,467.5 Z"/></g>
<g><path style="opacity:1" fill="#120e19" d="M 298.5,467.5 C 300.237,475.079 302.904,482.412 306.5,489.5C 301.285,483.197 298.618,475.863 298.5,467.5 Z"/></g>
<g><path style="opacity:1" fill="#0e0c18" d="M 282.5,462.5 C 283.139,463.097 283.472,463.93 283.5,465C 281.873,473.756 278.706,481.923 274,489.5C 272.827,493.531 271.66,497.531 270.5,501.5C 269.209,501.737 268.209,501.404 267.5,500.5C 268.497,500.53 269.164,500.03 269.5,499C 272.309,490.215 275.809,481.715 280,473.5C 280.995,469.855 281.828,466.188 282.5,462.5 Z"/></g>
<g><path style="opacity:1" fill="#fbd2a0" d="M 662.5,485.5 C 677.705,491.902 693.372,496.902 709.5,500.5C 714.047,501.848 718.381,503.682 722.5,506C 721.833,506.667 721.167,507.333 720.5,508C 705.833,516.333 691.167,524.667 676.5,533C 686.125,535.658 695.792,537.658 705.5,539C 689.612,550.775 672.946,561.275 655.5,570.5C 627.922,583.359 599.255,593.026 569.5,599.5C 569.167,599.5 568.833,599.5 568.5,599.5C 537.866,606.037 506.866,609.704 475.5,610.5C 553.446,597.044 617.113,559.71 666.5,498.5C 659.118,497.659 651.785,496.492 644.5,495C 650.72,492.059 656.72,488.892 662.5,485.5 Z"/></g>
<g><path style="opacity:1" fill="#151220" d="M 295.5,471.5 C 291.783,483.267 287.783,494.933 283.5,506.5C 282.482,503.623 282.649,500.623 284,497.5C 288.158,488.861 291.992,480.194 295.5,471.5 Z"/></g>
<g><path style="opacity:1" fill="#100c1b" d="M 522.5,492.5 C 521.284,494.451 519.618,495.951 517.5,497C 498.827,507.985 481.16,506.819 464.5,493.5C 470.054,497.108 476.054,499.942 482.5,502C 490.232,502.856 497.898,502.523 505.5,501C 511.499,498.667 517.165,495.834 522.5,492.5 Z"/></g>
<g><path style="opacity:1" fill="#0b0918" d="M 733.5,491.5 C 731.668,492.14 731.335,493.14 732.5,494.5C 738.36,497.401 744.193,500.401 750,503.5C 750.599,505.535 750.099,507.201 748.5,508.5C 748.966,506.799 748.966,505.299 748.5,504C 742.103,501.207 735.936,498.04 730,494.5C 729.251,493.365 729.417,492.365 730.5,491.5C 731.687,490.347 732.687,490.347 733.5,491.5 Z"/></g>
<g><path style="opacity:1" fill="#0f0e1c" d="M 335.5,516.5 C 340.375,514.691 340.708,512.191 336.5,509C 330.585,507.473 324.585,507.139 318.5,508C 315.941,511.075 315.941,514.075 318.5,517C 323.489,517.499 328.489,517.666 333.5,517.5C 333.07,518.421 331.736,518.921 329.5,519C 325.833,519.667 322.167,519.667 318.5,519C 314.885,515.341 314.552,511.341 317.5,507C 324.316,504.707 330.983,505.041 337.5,508C 341.772,511.781 341.438,514.948 336.5,517.5C 335.893,517.376 335.56,517.043 335.5,516.5 Z"/></g>
<g><path style="opacity:1" fill="#faf9f9" d="M 335.5,516.5 C 334.508,516.328 333.842,516.662 333.5,517.5C 328.489,517.666 323.489,517.499 318.5,517C 315.941,514.075 315.941,511.075 318.5,508C 324.585,507.139 330.585,507.473 336.5,509C 340.708,512.191 340.375,514.691 335.5,516.5 Z"/></g>
<g><path style="opacity:1" fill="#13121f" d="M 745.5,511.5 C 741.021,516.647 735.687,520.647 729.5,523.5C 732.429,521.018 735.429,518.518 738.5,516C 738.167,515.667 737.833,515.333 737.5,515C 740.505,514.467 743.172,513.3 745.5,511.5 Z"/></g>
<g><path style="opacity:1" fill="#0d0c17" d="M 247.5,495.5 C 238.602,496.085 229.602,496.919 220.5,498C 216.932,499.804 216.598,502.137 219.5,505C 222.408,505.993 225.408,506.493 228.5,506.5C 241.981,504.729 255.314,505.396 268.5,508.5C 268.797,512.767 268.464,516.934 267.5,521C 250.53,521.49 234.864,526.157 220.5,535C 216.475,538.288 216.642,541.121 221,543.5C 235.87,535.492 251.703,530.992 268.5,530C 271.634,538.771 275.467,547.271 280,555.5C 286.589,564.924 294.089,573.591 302.5,581.5C 285.496,568.979 274.163,552.479 268.5,532C 252.502,532.083 237.502,536.083 223.5,544C 218,545.167 215.833,543 217,537.5C 217.465,536.069 218.299,534.903 219.5,534C 233.855,524.993 249.522,520.16 266.5,519.5C 267.487,516.232 267.82,512.898 267.5,509.5C 251.164,508.084 234.831,506.918 218.5,506C 215.338,501.498 216.338,498.164 221.5,496C 230.16,495.5 238.827,495.334 247.5,495.5 Z"/></g>
<g><path style="opacity:1" fill="#0e0e1a" d="M 722.5,529.5 C 734.19,530.592 735.524,534.925 726.5,542.5C 727.412,540.405 728.579,538.405 730,536.5C 730.667,535.167 730.667,533.833 730,532.5C 727.328,531.718 724.828,530.718 722.5,529.5 Z"/></g>
<g><path style="opacity:1" fill="#130f20" d="M 336.5,540.5 C 340.426,553.59 349.093,561.757 362.5,565C 376.333,566.667 389.333,564.167 401.5,557.5C 400.657,559.173 399.324,560.34 397.5,561C 381.443,569.411 365.443,569.411 349.5,561C 341.618,556.001 337.284,549.168 336.5,540.5 Z"/></g>
<g><path style="opacity:1" fill="#494863" d="M 703.5,562.5 C 706.168,563.457 707.668,565.457 708,568.5C 709.555,579.893 705.722,589.06 696.5,596C 692.228,599.429 687.562,602.262 682.5,604.5C 682.167,603.667 681.833,602.833 681.5,602C 684.212,593.412 684.879,584.746 683.5,576C 690.617,572.028 697.284,567.528 703.5,562.5 Z"/></g>
<g><path style="opacity:1" fill="#0f0b18" d="M 398.5,571.5 C 390.054,575.79 381.054,577.79 371.5,577.5C 362.769,577.984 354.769,575.984 347.5,571.5C 364.329,578.435 380.995,578.102 397.5,570.5C 398.107,570.624 398.44,570.957 398.5,571.5 Z"/></g>
<g><path style="opacity:1" fill="#f3ede4" d="M 331.5,582.5 C 332.873,582.343 334.207,582.51 335.5,583C 343.212,587.24 351.212,590.907 359.5,594C 363.346,595.508 367.179,595.675 371,594.5C 371.456,595.744 370.956,596.577 369.5,597C 403.018,606.027 437.018,610.527 471.5,610.5C 435.696,612.154 400.696,607.821 366.5,597.5C 354.182,593.844 342.515,588.844 331.5,582.5 Z"/></g>
<g><path style="opacity:1" fill="#100f1a" d="M 302.5,581.5 C 315.561,591.369 329.894,599.203 345.5,605C 346.766,612.502 348.766,619.835 351.5,627C 351.43,627.765 351.097,628.265 350.5,628.5C 347.484,621.269 345.484,613.769 344.5,606C 328.696,600.609 314.696,592.442 302.5,581.5 Z"/></g>
<g><path style="opacity:1" fill="#130d22" d="M 655.5,570.5 C 652.898,572.81 649.898,574.643 646.5,576C 622.257,586.478 597.257,594.644 571.5,600.5C 570.584,600.457 569.917,600.124 569.5,599.5C 599.255,593.026 627.922,583.359 655.5,570.5 Z"/></g>
<g><path style="opacity:1" fill="#0d0c18" d="M 719.5,550.5 C 718.305,550.866 717.639,551.699 717.5,553C 724.127,564.725 725.127,576.891 720.5,589.5C 728.27,596.765 735.103,604.765 741,613.5C 744.628,619.417 747.128,625.75 748.5,632.5C 742.901,616.909 733.401,603.243 720,591.5C 721.346,583.27 721.679,574.936 721,566.5C 719.882,561.854 718.382,557.354 716.5,553C 716.441,550.187 717.441,549.354 719.5,550.5 Z"/></g>
<g><path style="opacity:1" fill="#454460" d="M 659.5,589.5 C 659.611,590.117 659.944,590.617 660.5,591C 646.7,605.471 630.7,616.805 612.5,625C 608.903,626.277 605.236,626.61 601.5,626C 612.973,619.342 621.973,610.842 628.5,600.5C 638.672,596.663 649.005,592.996 659.5,589.5 Z"/></g>
<g><path style="opacity:1" fill="#100a1d" d="M 366.5,597.5 C 400.696,607.821 435.696,612.154 471.5,610.5C 472.833,610.5 474.167,610.5 475.5,610.5C 506.866,609.704 537.866,606.037 568.5,599.5C 568.389,600.117 568.056,600.617 567.5,601C 515.932,612.112 463.932,614.778 411.5,609C 396.712,607.109 382.212,603.943 368,599.5C 366.97,599.164 366.47,598.497 366.5,597.5 Z"/></g>
<g><path style="opacity:1" fill="#464561" d="M 706.5,607.5 C 710.975,614.411 713.809,622.078 715,630.5C 716.786,642.588 717.952,654.588 718.5,666.5C 717.003,667.306 715.336,667.972 713.5,668.5C 711.336,662.516 709.169,656.516 707,650.5C 701.722,639.609 696.222,628.942 690.5,618.5C 695.788,614.849 701.121,611.182 706.5,607.5 Z"/></g>
<g><path style="opacity:1" fill="#616177" d="M 653.5,618.5 C 638.526,627.992 622.86,636.492 606.5,644C 570.346,658.772 534.679,674.605 499.5,691.5C 458.079,705.759 419.079,700.926 382.5,677C 376.333,672.167 370.833,666.667 366,660.5C 362.614,655.289 361.28,649.623 362,643.5C 376.138,655.486 392.305,663.653 410.5,668C 415.81,669.236 421.143,669.902 426.5,670C 401.202,662.02 381.035,647.187 366,625.5C 363.125,621.051 361.625,616.384 361.5,611.5C 364.51,612.269 367.51,613.103 370.5,614C 388.793,634.311 411.459,643.644 438.5,642C 431.548,639.857 425.214,636.691 419.5,632.5C 429.829,637.676 440.496,641.676 451.5,644.5C 441.597,646.58 431.597,648.08 421.5,649C 429.235,651.44 437.235,652.774 445.5,653C 475.232,653.587 503.899,648.254 531.5,637C 550.852,629.491 569.852,621.158 588.5,612C 601.853,608.163 615.186,604.329 628.5,600.5C 621.973,610.842 612.973,619.342 601.5,626C 605.236,626.61 608.903,626.277 612.5,625C 630.7,616.805 646.7,605.471 660.5,591C 659.944,590.617 659.611,590.117 659.5,589.5C 662.146,588.513 664.812,587.513 667.5,586.5C 668.676,594.799 666.843,602.466 662,609.5C 658.962,612.369 656.129,615.369 653.5,618.5 Z"/></g>
<g><path style="opacity:1" fill="#616177" d="M 718.5,666.5 C 717.952,654.588 716.786,642.588 715,630.5C 713.809,622.078 710.975,614.411 706.5,607.5C 708.146,605.188 710.146,603.188 712.5,601.5C 723.026,611.198 730.526,622.865 735,636.5C 737.874,647.889 734.707,657.055 725.5,664C 723.35,665.411 721.016,666.245 718.5,666.5 Z"/></g>
<g><path style="opacity:1" fill="#464561" d="M 451.5,644.5 C 440.496,641.676 429.829,637.676 419.5,632.5C 412.89,629.192 406.556,625.358 400.5,621C 408.793,622.19 417.127,623.523 425.5,625C 451.5,625.667 477.5,625.667 503.5,625C 510.5,623.915 517.5,623.249 524.5,623C 500.473,631.256 476.14,638.423 451.5,644.5 Z"/></g>
<g><path style="opacity:1" fill="#884d2f" d="M 678.5,625.5 C 677.539,627.265 677.205,629.265 677.5,631.5C 676.203,629.307 676.203,626.973 677.5,624.5C 678.107,624.624 678.44,624.957 678.5,625.5 Z"/></g>
<g><path style="opacity:1" fill="#090828" d="M 653.5,618.5 C 650.94,621.458 647.94,623.958 644.5,626C 612.881,643.14 580.215,658.14 546.5,671C 532.804,678.18 518.804,684.847 504.5,691C 503.809,692.067 503.309,693.234 503,694.5C 502.015,693.186 500.848,692.186 499.5,691.5C 534.679,674.605 570.346,658.772 606.5,644C 622.86,636.492 638.526,627.992 653.5,618.5 Z"/></g>
<g><path style="opacity:1" fill="#0c0b18" d="M 350.5,629.5 C 351.097,629.735 351.43,630.235 351.5,631C 347.106,643.952 348.106,656.452 354.5,668.5C 351.018,664.532 348.852,659.865 348,654.5C 346.827,645.906 347.66,637.573 350.5,629.5 Z"/></g>
<g><path style="opacity:1" fill="#12111f" d="M 749.5,634.5 C 750.579,640.449 750.746,646.449 750,652.5C 748.857,657.453 746.69,661.786 743.5,665.5C 748.214,655.525 750.214,645.192 749.5,634.5 Z"/></g>
<g><path style="opacity:1" fill="#0b0a18" d="M 743.5,666.5 C 737.416,674.543 729.416,679.543 719.5,681.5C 723.65,679.263 727.984,677.097 732.5,675C 736.061,671.927 739.728,669.094 743.5,666.5 Z"/></g>
<g><path style="opacity:1" fill="#fca143" d="M 596.5,751.5 C 582.932,740.186 567.265,735.52 549.5,737.5C 551.129,721.983 554.796,706.983 560.5,692.5C 571.746,687.667 583.412,682.833 595.5,678C 604.648,674.784 613.982,672.284 623.5,670.5C 620.678,699.632 611.678,726.632 596.5,751.5 Z"/></g>
<g><path style="opacity:1" fill="#fba143" d="M 713.5,765.5 C 698.979,743.746 678.646,734.746 652.5,738.5C 656.123,730.924 659.457,723.258 662.5,715.5C 663.496,715.586 664.329,715.252 665,714.5C 670.052,705.451 675.886,696.951 682.5,689C 683.5,688.333 684.5,688.333 685.5,689C 698.552,702.603 706.719,718.77 710,737.5C 711.518,747.164 712.684,756.497 713.5,765.5 Z"/></g>
<g><path style="opacity:1" fill="#e1812c" d="M 596.5,751.5 C 611.678,726.632 620.678,699.632 623.5,670.5C 613.982,672.284 604.648,674.784 595.5,678C 583.412,682.833 571.746,687.667 560.5,692.5C 561.673,687.814 563.34,683.314 565.5,679C 598.766,665.535 630.766,649.701 661.5,631.5C 664.287,656.734 660.787,681.067 651,704.5C 642.041,728.748 629.041,750.414 612,769.5C 608.09,762.423 602.924,756.423 596.5,751.5 Z"/></g>
<g><path style="opacity:1" fill="#faa343" d="M 395.5,701.5 C 396.088,704.61 396.755,707.61 397.5,710.5C 397.739,721.315 399.072,731.981 401.5,742.5C 392.399,742.756 384.065,745.423 376.5,750.5C 371.034,729.507 369.201,708.173 371,686.5C 378.638,692.401 386.805,697.401 395.5,701.5 Z"/></g>
<g><path style="opacity:1" fill="#fbd4a1" d="M 542.5,703.5 C 538.953,717.279 535.953,731.279 533.5,745.5C 525.785,750.716 519.618,757.382 515,765.5C 501.588,791.325 487.921,816.992 474,842.5C 473.282,843.451 472.449,843.617 471.5,843C 468.577,840.584 466.243,837.75 464.5,834.5C 483.728,803.055 503.228,771.721 523,740.5C 523.832,731.814 523.665,723.147 522.5,714.5C 494.176,728.041 464.843,730.874 434.5,723C 426.714,720.272 419.381,716.772 412.5,712.5C 412.238,711.022 412.571,709.689 413.5,708.5C 419.368,710.467 425.368,711.801 431.5,712.5C 456.282,716.365 480.615,714.031 504.5,705.5C 518.775,700.573 532.608,694.573 546,687.5C 544.556,692.691 543.39,698.024 542.5,703.5 Z"/></g>
<g><path style="opacity:1" fill="#110f1c" d="M 354.5,668.5 C 356.605,669.987 358.272,671.987 359.5,674.5C 356.658,695.358 356.991,716.192 360.5,737C 360.472,738.07 360.139,738.903 359.5,739.5C 355.172,718.628 354.505,697.628 357.5,676.5C 357.036,673.583 356.036,670.916 354.5,668.5 Z"/></g>
<g><path style="opacity:1" fill="#74423c" d="M 395.5,701.5 C 397.388,703.988 398.055,706.988 397.5,710.5C 396.755,707.61 396.088,704.61 395.5,701.5 Z"/></g>
<g><path style="opacity:1" fill="#0e081e" d="M 504.5,705.5 C 480.615,714.031 456.282,716.365 431.5,712.5C 455.941,715.223 479.774,712.556 503,704.5C 503.765,704.57 504.265,704.903 504.5,705.5 Z"/></g>
<g><path style="opacity:1" fill="#100e1b" d="M 720.5,683.5 C 744.574,719.742 755.908,759.742 754.5,803.5C 754.579,773.456 748.746,744.456 737,716.5C 731.309,705.117 725.809,694.117 720.5,683.5 Z"/></g>
<g><path style="opacity:1" fill="#feecd6" d="M 412.5,712.5 C 419.381,716.772 426.714,720.272 434.5,723C 464.843,730.874 494.176,728.041 522.5,714.5C 523.665,723.147 523.832,731.814 523,740.5C 503.228,771.721 483.728,803.055 464.5,834.5C 456.391,826.299 449.224,817.299 443,807.5C 437.533,797.564 432.367,787.564 427.5,777.5C 419.823,756.458 414.823,734.791 412.5,712.5 Z"/></g>
<g><path style="opacity:1" fill="#191328" d="M 542.5,703.5 C 540.408,717.037 538.075,730.537 535.5,744C 535.164,745.03 534.497,745.53 533.5,745.5C 535.953,731.279 538.953,717.279 542.5,703.5 Z"/></g>
<g><path style="opacity:1" fill="#0c0b18" d="M 258.5,719.5 C 289.631,722.375 317.631,733.208 342.5,752C 344.041,753.371 345.375,754.871 346.5,756.5C 339.951,751.82 332.951,746.987 325.5,742C 302.686,729.697 280.353,722.197 258.5,719.5 Z"/></g>
<g><path style="opacity:1" fill="#0c0817" d="M 285.5,739.5 C 268.11,734.176 250.277,731.843 232,732.5C 213.041,732.81 194.208,734.477 175.5,737.5C 194.242,732.908 213.409,730.908 233,731.5C 248.734,730.664 264.234,732.164 279.5,736C 282.152,736.353 284.152,737.52 285.5,739.5 Z"/></g>
<g><path style="opacity:1" fill="#feecd6" d="M 285.5,739.5 C 286.609,739.557 287.609,739.89 288.5,740.5C 293.016,743.854 296.683,748.021 299.5,753C 275.79,749.358 252.124,750.025 228.5,755C 244.798,766.004 259.798,778.67 273.5,793C 282.859,799.348 291.859,806.181 300.5,813.5C 292.066,818.145 283.066,821.312 273.5,823C 260.935,825.341 248.268,826.841 235.5,827.5C 241.472,836.137 248.472,843.804 256.5,850.5C 224.799,843.9 196.133,831.067 170.5,812C 172.494,814.158 173.828,816.658 174.5,819.5C 171.253,815.341 168.253,811.008 165.5,806.5C 156.588,786.766 149.255,766.432 143.5,745.5C 153.997,742.2 164.663,739.533 175.5,737.5C 194.208,734.477 213.041,732.81 232,732.5C 250.277,731.843 268.11,734.176 285.5,739.5 Z"/></g>
<g><path style="opacity:1" fill="#e0812c" d="M 678.5,625.5 C 696.121,659.742 712.954,694.409 729,729.5C 743.494,766.975 744.161,804.641 731,842.5C 721.71,863.618 707.544,880.618 688.5,893.5C 680.446,884.445 671.779,876.111 662.5,868.5C 663.167,868.5 663.5,868.167 663.5,867.5C 689.603,855.878 705.103,835.878 710,807.5C 711.616,796.491 712.782,785.491 713.5,774.5C 715.022,773.809 716.022,772.642 716.5,771C 715.368,769.235 714.368,767.402 713.5,765.5C 712.684,756.497 711.518,747.164 710,737.5C 706.719,718.77 698.552,702.603 685.5,689C 684.5,688.333 683.5,688.333 682.5,689C 675.886,696.951 670.052,705.451 665,714.5C 664.329,715.252 663.496,715.586 662.5,715.5C 673.103,688.549 678.103,660.549 677.5,631.5C 677.205,629.265 677.539,627.265 678.5,625.5 Z"/></g>
<g><path style="opacity:1" fill="#0d0c1a" d="M 359.5,739.5 C 356.587,744.929 353.42,750.263 350,755.5C 349.162,756.999 348.329,757.332 347.5,756.5C 350.775,750.269 354.775,744.603 359.5,739.5 Z"/></g>
<g><path style="opacity:1" fill="#130f20" d="M 431.5,712.5 C 425.368,711.801 419.368,710.467 413.5,708.5C 412.571,709.689 412.238,711.022 412.5,712.5C 414.823,734.791 419.823,756.458 427.5,777.5C 426.108,775.727 424.941,773.727 424,771.5C 416.878,750.724 412.378,729.391 410.5,707.5C 417.821,708.293 424.821,709.96 431.5,712.5 Z"/></g>
<g><path style="opacity:1" fill="#fca042" d="M 288.5,740.5 C 308.458,746.393 326.291,756.06 342,769.5C 339.311,788.378 340.478,807.044 345.5,825.5C 319.724,845.527 290.39,853.86 257.5,850.5C 257.167,850.5 256.833,850.5 256.5,850.5C 248.472,843.804 241.472,836.137 235.5,827.5C 248.268,826.841 260.935,825.341 273.5,823C 283.066,821.312 292.066,818.145 300.5,813.5C 291.859,806.181 282.859,799.348 273.5,793C 259.798,778.67 244.798,766.004 228.5,755C 252.124,750.025 275.79,749.358 299.5,753C 296.683,748.021 293.016,743.854 288.5,740.5 Z"/></g>
<g><path style="opacity:1" fill="#fca143" d="M 713.5,774.5 C 712.782,785.491 711.616,796.491 710,807.5C 705.103,835.878 689.603,855.878 663.5,867.5C 646.498,855.388 627.498,849.055 606.5,848.5C 606.889,845.447 606.223,842.78 604.5,840.5C 605.625,815.259 613.791,792.593 629,772.5C 643.173,754.822 661.339,747.989 683.5,752C 689.449,753.973 694.783,756.973 699.5,761C 704.035,765.703 708.702,770.203 713.5,774.5 Z"/></g>
<g><path style="opacity:1" fill="#110f1c" d="M 254.5,718.5 C 217.161,718.792 180.161,723.292 143.5,732C 138.638,732.631 134.138,734.131 130,736.5C 129.5,737.5 129,738.5 128.5,739.5C 133.488,756.966 138.988,774.299 145,791.5C 149.393,802.617 154.56,813.284 160.5,823.5C 153.472,814.118 147.972,803.784 144,792.5C 138.469,776.24 133.136,759.906 128,743.5C 126.817,739.726 127.651,736.559 130.5,734C 163.985,725.295 197.985,719.795 232.5,717.5C 239.843,717.731 247.176,718.064 254.5,718.5 Z"/></g>
<g><path style="opacity:1" fill="#754629" d="M 600.5,780.5 C 598.026,778.433 595.86,775.433 594,771.5C 592.667,770.167 591.333,768.833 590,767.5C 572.226,811.398 549.559,852.398 522,890.5C 518.7,894.16 515.2,897.493 511.5,900.5C 510.253,902.042 510.253,903.542 511.5,905C 511.167,905.167 510.833,905.333 510.5,905.5C 509.757,904.092 508.923,902.759 508,901.5C 507.405,902.899 507.572,904.232 508.5,905.5C 510.969,906.168 513.302,906.835 515.5,907.5C 512.753,907.813 510.086,907.48 507.5,906.5C 505.852,900.311 505.018,893.978 505,887.5C 503.944,882.786 502.277,882.453 500,886.5C 498.229,893.806 498.063,901.139 499.5,908.5C 494.5,908.5 489.5,908.5 484.5,908.5C 484.637,900.065 484.637,891.732 484.5,883.5C 482.515,885.457 481.015,887.79 480,890.5C 479.057,895.809 478.224,901.142 477.5,906.5C 468.951,904.406 465.784,899.073 468,890.5C 476.498,870.501 485.832,850.834 496,831.5C 506.824,809.85 518.157,788.516 530,767.5C 546.474,748.615 564.974,746.449 585.5,761C 592.272,766.255 597.272,772.755 600.5,780.5 Z"/></g>
<g><path style="opacity:1" fill="#754628" d="M 433.5,818.5 C 431.549,817.284 430.049,815.618 429,813.5C 429.933,820.503 431.267,827.503 433,834.5C 435.732,852.128 436.065,869.794 434,887.5C 432.882,890.855 431.382,894.022 429.5,897C 425.526,898.039 421.859,899.539 418.5,901.5C 418.035,894.378 417.202,887.378 416,880.5C 413.913,882.745 412.579,885.412 412,888.5C 410.743,894.769 410.243,901.102 410.5,907.5C 403.167,907.5 395.833,907.5 388.5,907.5C 387.683,899.598 389.016,892.098 392.5,885C 392.167,884.5 391.833,884 391.5,883.5C 384.878,889.695 382.212,897.361 383.5,906.5C 376.626,906.579 372.959,903.246 372.5,896.5C 374.952,885.211 381.118,876.545 391,870.5C 388.605,853.846 385.938,837.18 383,820.5C 380.274,803.242 378.607,785.909 378,768.5C 385.108,759.528 394.275,755.528 405.5,756.5C 412.342,778.386 421.675,799.052 433.5,818.5 Z"/></g>
<g><path style="opacity:1" fill="#110e1c" d="M 143.5,745.5 C 149.255,766.432 156.588,786.766 165.5,806.5C 160.304,798.101 156.138,789.101 153,779.5C 149.298,768.729 145.798,757.895 142.5,747C 142.57,746.235 142.903,745.735 143.5,745.5 Z"/></g>
<g><path style="opacity:1" fill="#e1832c" d="M 361.5,761.5 C 362.117,761.611 362.617,761.944 363,762.5C 365.275,790.753 368.942,818.753 374,846.5C 359.07,827.029 353.07,805.029 356,780.5C 357.133,773.937 358.967,767.604 361.5,761.5 Z"/></g>
<g><path style="opacity:1" fill="#663b1f" d="M 600.5,780.5 C 602.337,783.519 602.837,786.852 602,790.5C 589.451,825.668 571.118,857.335 547,885.5C 540.717,892.789 533.551,898.956 525.5,904C 522.395,905.868 519.062,907.035 515.5,907.5C 513.302,906.835 510.969,906.168 508.5,905.5C 507.572,904.232 507.405,902.899 508,901.5C 508.923,902.759 509.757,904.092 510.5,905.5C 510.833,905.333 511.167,905.167 511.5,905C 510.253,903.542 510.253,902.042 511.5,900.5C 515.2,897.493 518.7,894.16 522,890.5C 549.559,852.398 572.226,811.398 590,767.5C 591.333,768.833 592.667,770.167 594,771.5C 595.86,775.433 598.026,778.433 600.5,780.5 Z"/></g>
<g><path style="opacity:1" fill="#fdd9ac" d="M 256.5,850.5 C 256.833,850.5 257.167,850.5 257.5,850.5C 266.645,855.908 275.979,861.075 285.5,866C 263.21,873.164 240.877,873.331 218.5,866.5C 199.663,854.666 184.997,838.999 174.5,819.5C 173.828,816.658 172.494,814.158 170.5,812C 196.133,831.067 224.799,843.9 256.5,850.5 Z"/></g>
<g><path style="opacity:1" fill="#e0802c" d="M 345.5,825.5 C 349.274,835.88 354.274,845.714 360.5,855C 339.708,860.291 327.375,873.457 323.5,894.5C 294.194,897.337 266.194,892.503 239.5,880C 232.095,875.974 225.095,871.474 218.5,866.5C 240.877,873.331 263.21,873.164 285.5,866C 275.979,861.075 266.645,855.908 257.5,850.5C 290.39,853.86 319.724,845.527 345.5,825.5 Z"/></g>
<g><path style="opacity:1" fill="#0e0d18" d="M 753.5,807.5 C 751.995,832.028 743.995,854.028 729.5,873.5C 742.997,852.551 750.83,829.551 753,804.5C 753.483,805.448 753.649,806.448 753.5,807.5 Z"/></g>
<g><path style="opacity:1" fill="#f3b347" d="M 604.5,840.5 C 606.223,842.78 606.889,845.447 606.5,848.5C 627.498,849.055 646.498,855.388 663.5,867.5C 663.5,868.167 663.167,868.5 662.5,868.5C 645.17,856.28 625.837,850.28 604.5,850.5C 604.5,847.167 604.5,843.833 604.5,840.5 Z"/></g>
<g><path style="opacity:1" fill="#673c1e" d="M 433.5,818.5 C 437.646,824.099 441.812,829.766 446,835.5C 448.417,851.414 449.083,867.414 448,883.5C 447.339,891.83 444.173,898.997 438.5,905C 432.755,907.46 426.755,908.127 420.5,907C 419.536,905.275 418.869,903.441 418.5,901.5C 421.859,899.539 425.526,898.039 429.5,897C 431.382,894.022 432.882,890.855 434,887.5C 436.065,869.794 435.732,852.128 433,834.5C 431.267,827.503 429.933,820.503 429,813.5C 430.049,815.618 431.549,817.284 433.5,818.5 Z"/></g>
<g><path style="opacity:1" fill="#0b0917" d="M 174.5,843.5 C 183.09,852.426 191.757,861.426 200.5,870.5C 190.46,862.794 181.793,853.794 174.5,843.5 Z"/></g>
<g><path style="opacity:1" fill="#724426" d="M 597.5,864.5 C 630.954,863.394 657.287,876.394 676.5,903.5C 675.271,904.281 673.938,904.781 672.5,905C 652.213,906.969 631.88,907.803 611.5,907.5C 611.831,900.137 611.497,892.803 610.5,885.5C 604.581,891.593 602.248,898.927 603.5,907.5C 596.833,907.5 590.167,907.5 583.5,907.5C 582.708,899.439 584.041,891.772 587.5,884.5C 585.671,883.718 584.171,884.384 583,886.5C 579.144,892.257 577.311,898.591 577.5,905.5C 565.053,904.953 561.553,898.953 567,887.5C 574.064,875.568 584.231,867.901 597.5,864.5 Z"/></g>
<g><path style="opacity:1" fill="#7d4b2a" d="M 362.5,869.5 C 364.199,869.34 365.866,869.506 367.5,870C 356.136,878.226 350.136,889.392 349.5,903.5C 345.397,904.231 341.897,903.231 339,900.5C 337.47,891.089 340.304,883.255 347.5,877C 352.313,873.927 357.313,871.427 362.5,869.5 Z"/></g>
<g><path style="opacity:1" fill="#0b0918" d="M 720.5,885.5 C 715.729,891.61 710.062,896.61 703.5,900.5C 709.105,895.397 714.605,890.064 720,884.5C 720.399,884.728 720.565,885.062 720.5,885.5 Z"/></g>
<g><path style="opacity:1" fill="#0c0b19" d="M 703.5,900.5 C 700.856,902.969 698.023,905.302 695,907.5C 691.85,916 685.684,919.833 676.5,919C 666.19,920.017 655.857,920.517 645.5,920.5C 643.473,920.662 641.473,920.495 639.5,920C 650.167,919.333 660.833,918.667 671.5,918C 677.27,917.538 682.937,916.538 688.5,915C 691.08,911.842 693.413,908.508 695.5,905C 698.059,903.223 700.726,901.723 703.5,900.5 Z"/></g>
<g><path style="opacity:1" fill="#12111d" d="M 200.5,870.5 C 237.775,899.418 280.109,911.918 327.5,908C 329.806,910.306 332.14,912.64 334.5,915C 338.057,916.408 341.724,917.408 345.5,918C 370.651,919.635 395.651,921.135 420.5,922.5C 397.466,922.633 374.466,921.8 351.5,920C 346.078,919.43 340.745,918.43 335.5,917C 332.689,915.356 330.356,913.19 328.5,910.5C 284.611,913.364 244.611,902.531 208.5,878C 205.334,876 202.668,873.5 200.5,870.5 Z"/></g>
<g><path style="opacity:1" fill="#080712" d="M 637.5,921.5 C 586.185,920.827 534.851,921.161 483.5,922.5C 534.82,919.2 586.153,918.867 637.5,921.5 Z"/></g>
</svg>
