<?xml version="1.0" encoding="UTF-8" standalone="no"?>
<svg
   version="1.0"
   width="566pt"
   height="654pt"
   viewBox="0 0 566 654"
   preserveAspectRatio="xMidYMid"
   id="svg4"
   sodipodi:docname="Free-Fox-Silhouette-Svg.svg"
   inkscape:version="1.4.2 (ebf0e940, 2025-05-08)"
   xmlns:inkscape="http://www.inkscape.org/namespaces/inkscape"
   xmlns:sodipodi="http://sodipodi.sourceforge.net/DTD/sodipodi-0.dtd"
   xmlns="http://www.w3.org/2000/svg"
   xmlns:svg="http://www.w3.org/2000/svg">
  <defs
     id="defs4" />
  <sodipodi:namedview
     id="namedview4"
     pagecolor="#505050"
     bordercolor="#eeeeee"
     borderopacity="1"
     inkscape:showpageshadow="0"
     inkscape:pageopacity="0"
     inkscape:pagecheckerboard="0"
     inkscape:deskcolor="#505050"
     inkscape:document-units="pt"
     inkscape:zoom="1.0355505"
     inkscape:cx="376.6113"
     inkscape:cy="416.6866"
     inkscape:window-width="976"
     inkscape:window-height="1052"
     inkscape:window-x="0"
     inkscape:window-y="0"
     inkscape:window-maximized="0"
     inkscape:current-layer="svg4">
    <inkscape:page
       x="0"
       y="0"
       width="566"
       height="654"
       id="page2"
       margin="0"
       bleed="0" />
  </sodipodi:namedview>
  <metadata
     id="metadata1">
Created by potrace 1.16, written by Peter Selinger 2001-2019
</metadata>
  <g
     transform="matrix(0.1,0,0,-0.1,0,654)"
     fill="#000000"
     stroke="none"
     id="g4"
     style="fill:#ff2a2a">
    <path
       d="m 2476,6315 c -17,-17 -19,-23 -41,-128 -14,-62 -16,-110 -12,-240 3,-89 9,-176 12,-193 7,-30 5,-32 -27,-39 -43,-10 -158,-67 -228,-115 -72,-49 -188,-172 -222,-236 -15,-28 -41,-91 -59,-140 -43,-124 -59,-151 -120,-212 -70,-70 -185,-140 -316,-193 -118,-47 -138,-67 -127,-124 5,-26 25,-56 67,-101 101,-108 282,-183 447,-184 25,0 113,9 195,20 181,24 273,26 281,6 8,-21 -56,-141 -126,-235 -122,-165 -180,-275 -228,-435 -25,-86 -27,-102 -27,-286 1,-305 22,-360 250,-655 34,-44 65,-89 69,-100 16,-43 65,-317 77,-430 15,-150 19,-161 61,-170 18,-4 54,-18 80,-31 26,-13 50,-20 53,-14 7,11 -3,453 -11,484 -3,13 -27,32 -66,51 -34,17 -59,35 -57,40 2,6 27,8 57,7 36,-3 52,0 52,8 0,7 -29,39 -65,72 -78,71 -156,180 -219,305 -67,133 -79,180 -71,280 8,92 1,100 -38,54 -14,-17 -28,-27 -31,-24 -11,12 -6,148 9,236 19,107 65,240 113,327 20,36 78,123 129,193 51,71 115,169 144,218 56,98 80,120 143,129 l 41,6 -95,47 c -144,73 -254,81 -545,42 -156,-21 -254,-19 -347,6 -92,25 -148,68 -148,113 0,25 3,27 29,21 41,-9 239,29 367,71 60,19 181,70 270,114 213,106 316,134 464,126 193,-10 315,-61 441,-186 118,-116 168,-239 172,-417 1,-76 -18,-193 -31,-193 -4,0 -18,34 -32,76 -30,91 -88,199 -125,234 l -28,25 13,-24 c 55,-107 49,-350 -14,-486 -31,-67 -117,-200 -190,-290 -66,-82 -116,-172 -116,-208 0,-40 -19,-42 -35,-3 -21,50 -19,142 5,211 11,33 19,64 17,69 -4,12 -104,-140 -131,-199 -59,-128 -87,-278 -85,-452 1,-138 18,-220 81,-413 50,-153 54,-207 36,-493 -9,-142 -10,-211 -3,-216 5,-4 46,-22 90,-40 80,-33 183,-88 275,-147 l 48,-31 12,61 c 6,34 18,89 26,123 38,167 55,341 63,643 9,339 8,330 84,449 54,83 72,97 52,40 -20,-56 -19,-128 6,-294 24,-162 22,-265 -10,-419 -24,-112 -28,-236 -8,-236 25,0 37,17 53,71 84,285 239,462 476,543 102,35 269,37 374,5 219,-66 371,-220 428,-433 13,-47 21,-86 20,-86 -2,0 -10,16 -19,36 -8,20 -41,61 -73,92 -174,171 -386,245 -590,207 -131,-25 -219,-70 -308,-158 -146,-147 -209,-356 -173,-576 21,-130 113,-305 182,-345 52,-30 218,-88 346,-121 134,-35 376,-37 496,-6 166,44 287,119 400,249 142,165 196,328 198,602 1,151 -5,193 -50,335 -64,199 -216,422 -424,620 -119,114 -198,175 -414,321 -104,70 -217,148 -250,172 -142,103 -242,230 -290,369 -25,73 -28,95 -35,324 -14,394 -39,540 -133,771 -68,168 -139,267 -271,375 -20,16 -26,31 -26,60 0,46 -41,136 -108,236 -100,147 -242,286 -387,379 -132,85 -193,108 -219,83 z m 283,-391 c 62,-92 107,-202 122,-294 11,-75 9,-273 -3,-286 -11,-10 -130,79 -184,139 -99,108 -154,257 -154,416 0,88 15,215 27,234 9,15 132,-119 192,-209 z m -449,-744 c 12,-8 7,-17 -30,-52 -89,-84 -110,-98 -146,-98 -31,0 -34,3 -34,29 0,38 38,92 80,113 38,20 106,23 130,8 z"
       id="path1"
       style="fill:#ff2a2a" />
    <path
       d="m 1900,6185 c -15,-18 -14,-19 109,-309 44,-103 87,-199 96,-213 15,-23 18,-24 38,-9 88,64 194,116 236,116 29,0 32,12 25,87 -7,65 -9,70 -63,127 -95,100 -218,171 -346,201 -75,18 -80,18 -95,0 z"
       id="path2"
       style="fill:#ff2a2a" />
    <path
       d="m 5221,2163 c -1,-112 -7,-148 -52,-328 -76,-297 -377,-560 -719,-630 -110,-23 -324,-16 -455,13 -261,59 -601,205 -917,393 -124,74 -416,221 -608,306 -354,157 -619,242 -821,264 -361,40 -709,-56 -967,-266 -197,-160 -312,-341 -377,-595 -34,-129 -35,-143 -35,-306 0,-226 15,-309 85,-459 45,-96 119,-202 160,-229 14,-9 25,-15 25,-14 0,2 3,33 5,69 6,85 36,183 76,242 76,115 235,220 384,253 100,22 269,23 385,1 47,-8 105,-18 129,-21 130,-19 404,-128 646,-258 285,-153 296,-158 425,-218 213,-98 594,-214 775,-235 28,-4 91,-13 140,-22 57,-9 163,-15 290,-16 171,-2 218,1 325,21 323,60 524,136 740,280 136,91 229,178 321,299 163,215 224,342 266,553 59,300 25,576 -100,820 -40,78 -114,200 -122,200 -1,0 -3,-53 -4,-117 z M 1685,1995 c 105,-14 240,-57 337,-106 152,-77 366,-234 426,-312 69,-91 83,-133 30,-94 -148,110 -401,220 -568,246 -144,24 -358,7 -403,-30 l -22,-18 36,-1 c 61,0 209,-48 304,-99 158,-83 235,-141 376,-281 109,-108 143,-149 173,-208 21,-41 36,-75 34,-78 -3,-2 -32,18 -66,45 -233,187 -628,315 -837,271 l -60,-13 45,-11 c 181,-48 471,-245 575,-390 46,-65 100,-166 89,-166 -4,0 -23,12 -41,26 -33,25 -272,140 -398,190 -82,34 -239,78 -364,103 -114,23 -289,28 -356,10 -67,-18 -179,-61 -207,-81 -34,-23 -47,-23 -41,2 6,23 -3,25 -44,9 -36,-13 -81,-56 -150,-142 -30,-38 -57,-66 -60,-63 -3,3 2,12 10,20 10,10 15,34 15,68 0,62 38,170 79,226 77,102 184,231 216,259 19,17 58,43 86,59 61,33 52,48 -24,38 -63,-7 -124,-42 -199,-113 -62,-59 -178,-194 -220,-256 l -25,-37 -7,26 c -8,34 12,143 44,231 87,245 256,431 522,577 168,92 445,129 695,93 z M 443,898 c -6,-69 -17,-92 -28,-59 -5,18 20,121 30,121 2,0 1,-28 -2,-62 z"
       id="path3"
       style="fill:#ff2a2a" />
    <path
       d="m 2150,395 c -7,-8 -20,-15 -29,-15 -32,0 -137,-58 -164,-90 -45,-53 -77,-125 -77,-172 V 75 l 273,-4 c 176,-2 286,1 312,8 22,6 69,29 104,50 36,22 68,38 73,35 4,-3 8,-1 8,4 0,5 -53,33 -117,63 -65,29 -173,82 -240,116 -67,35 -124,63 -126,63 -3,0 -10,-7 -17,-15 z"
       id="path4"
       style="fill:#ff2a2a" />
  </g>
</svg>
